{
  "source": "C:\\Users\\Peter\\Desktop\\stuff\\MIUN\\quantitative_research\\video_compression\\videos\\UVG\\YachtRide_1920x1080_120fps_420_8bit_YUV.y4m",
  "output": "C:\\Users\\Peter\\Desktop\\stuff\\MIUN\\quantitative_research\\video_compression\\compressed_videos\\UVG\\vp9\\1.5\\YachtRide_1920x1080_120fps_420_8bit_YUV_vp9.webm",
  "codec": "vp9",
  "ok": "[yuv4mpegpipe @ 00000218cd3053c0] Stream #0: not enough frames to estimate rate; consider increasing probesize\nInput #0, yuv4mpegpipe, from 'C:\\Users\\Peter\\Desktop\\stuff\\MIUN\\quantitative_research\\video_compression\\videos\\UVG\\YachtRide_1920x1080_120fps_420_8bit_YUV.y4m':\n  Duration: 00:00:05.00, start: 0.000000, bitrate: 2985989 kb/s\n  Stream #0:0: Video: rawvideo (I420 / 0x30323449), yuv420p(progressive), 1920x1080, 120 fps, 120 tbr, 120 tbn\n[out#0/webm @ 00000218cd309040] Codec AVOption b:a (set bitrate (in bits/s)) has not been used for any stream. The most likely reason is either wrong type (e.g. a video option with no video streams) or that it is a private option of some decoder which was not actually used for any stream.\nStream mapping:\n  Stream #0:0 -> #0:0 (rawvideo (native) -> vp9 (libvpx-vp9))\nPress [q] to stop, [?] for help\n[libvpx-vp9 @ 00000218cd30c100] v1.15.2-100-g40561f514\nOutput #0, webm, to 'C:\\Users\\Peter\\Desktop\\stuff\\MIUN\\quantitative_research\\video_compression\\compressed_videos\\UVG\\vp9\\1.5\\YachtRide_1920x1080_120fps_420_8bit_YUV_vp9.webm':\n  Metadata:\n    encoder         : Lavf62.3.100\n  Stream #0:0: Video: vp9, yuv420p(tv, progressive), 1920x1080, q=2-31, 1500 kb/s, 120 fps, 1k tbn\n    Metadata:\n      encoder         : Lavc62.11.100 libvpx-vp9\n    Side data:\n      cpb: bitrate max/min/avg: 0/0/0 buffer size: 1500000 vbv_delay: N/A\nframe=    2 fps=0.0 q=63.0 size=       0KiB time=00:00:00.01 bitrate= 230.9kbits/s speed=0.0328x elapsed=0:00:00.50    \nframe=    9 fps=8.7 q=63.0 size=       0KiB time=00:00:00.07 bitrate=  51.3kbits/s speed=0.0724x elapsed=0:00:01.03    \nframe=   15 fps=9.5 q=63.0 size=       0KiB time=00:00:00.12 bitrate=  30.8kbits/s speed=0.0789x elapsed=0:00:01.58    \nframe=   20 fps=9.5 q=61.0 size=       0KiB time=00:00:00.16 bitrate=  23.1kbits/s speed=0.0791x elapsed=0:00:02.10    \nframe=   25 fps=9.5 q=63.0 size=       0KiB time=00:00:00.20 bitrate=  18.5kbits/s speed=0.0794x elapsed=0:00:02.62    \nframe=   30 fps=9.5 q=62.0 size=       0KiB time=00:00:00.25 bitrate=  15.4kbits/s speed=0.0794x elapsed=0:00:03.14    \nframe=   35 fps=9.5 q=61.0 size=       0KiB time=00:00:00.29 bitrate=  13.2kbits/s speed=0.0791x elapsed=0:00:03.68    \nframe=   40 fps=9.4 q=63.0 size=       0KiB time=00:00:00.33 bitrate=  11.5kbits/s speed=0.0787x elapsed=0:00:04.23    \nframe=   45 fps=9.4 q=63.0 size=       0KiB time=00:00:00.37 bitrate=  10.3kbits/s speed=0.0787x elapsed=0:00:04.76    \nframe=   49 fps=9.3 q=63.0 size=       0KiB time=00:00:00.40 bitrate=   9.4kbits/s speed=0.0774x elapsed=0:00:05.27    \nframe=   54 fps=9.3 q=63.0 size=       0KiB time=00:00:00.45 bitrate=   8.6kbits/s speed=0.0777x elapsed=0:00:05.79    \nframe=   59 fps=9.3 q=63.0 size=       0KiB time=00:00:00.49 bitrate=   7.8kbits/s speed=0.0777x elapsed=0:00:06.32    \nframe=   63 fps=9.2 q=63.0 size=       0KiB time=00:00:00.52 bitrate=   7.3kbits/s speed=0.0766x elapsed=0:00:06.85    \nframe=   68 fps=9.2 q=63.0 size=       0KiB time=00:00:00.56 bitrate=   6.8kbits/s speed=0.0767x elapsed=0:00:07.39    \nframe=   73 fps=9.2 q=63.0 size=       0KiB time=00:00:00.60 bitrate=   6.3kbits/s speed=0.0768x elapsed=0:00:07.92    \nframe=   78 fps=9.2 q=61.0 size=       0KiB time=00:00:00.65 bitrate=   5.9kbits/s speed=0.0769x elapsed=0:00:08.45    \nframe=   83 fps=9.2 q=63.0 size=       0KiB time=00:00:00.69 bitrate=   5.6kbits/s speed=0.0769x elapsed=0:00:08.99    \nframe=   88 fps=9.2 q=61.0 size=       0KiB time=00:00:00.73 bitrate=   5.2kbits/s speed=0.0771x elapsed=0:00:09.51    \nframe=   93 fps=9.3 q=62.0 size=       0KiB time=00:00:00.77 bitrate=   5.0kbits/s speed=0.0772x elapsed=0:00:10.04    \nframe=   98 fps=9.3 q=63.0 size=       0KiB time=00:00:00.81 bitrate=   4.7kbits/s speed=0.0772x elapsed=0:00:10.57    \nframe=  102 fps=9.2 q=63.0 size=       0KiB time=00:00:00.85 bitrate=   4.5kbits/s speed=0.0767x elapsed=0:00:11.08    \nframe=  107 fps=9.2 q=63.0 size=       0KiB time=00:00:00.89 bitrate=   4.3kbits/s speed=0.0768x elapsed=0:00:11.61    \nframe=  112 fps=9.2 q=63.0 size=       0KiB time=00:00:00.93 bitrate=   4.1kbits/s speed=0.0769x elapsed=0:00:12.13    \nframe=  116 fps=9.2 q=54.0 size=       0KiB time=00:00:00.96 bitrate=   4.0kbits/s speed=0.0764x elapsed=0:00:12.64    \nframe=  121 fps=9.2 q=63.0 size=       0KiB time=00:00:01.00 bitrate=   3.8kbits/s speed=0.0766x elapsed=0:00:13.17    \nframe=  126 fps=9.2 q=62.0 size=       0KiB time=00:00:01.05 bitrate=   3.7kbits/s speed=0.0767x elapsed=0:00:13.69    \nframe=  130 fps=9.1 q=63.0 size=     223KiB time=00:00:01.08 bitrate=1686.2kbits/s speed=0.0762x elapsed=0:00:14.20    \nframe=  136 fps=9.2 q=63.0 size=     223KiB time=00:00:01.13 bitrate=1611.8kbits/s speed=0.077x elapsed=0:00:14.71    \nframe=  142 fps=9.3 q=63.0 size=     223KiB time=00:00:01.18 bitrate=1543.7kbits/s speed=0.0777x elapsed=0:00:15.23    \nframe=  147 fps=9.3 q=63.0 size=     223KiB time=00:00:01.22 bitrate=1491.2kbits/s speed=0.0776x elapsed=0:00:15.78    \nframe=  151 fps=9.3 q=63.0 size=     223KiB time=00:00:01.25 bitrate=1451.7kbits/s speed=0.0771x elapsed=0:00:16.31    \nframe=  156 fps=9.3 q=63.0 size=     223KiB time=00:00:01.30 bitrate=1405.2kbits/s speed=0.0773x elapsed=0:00:16.82    \nframe=  160 fps=9.2 q=63.0 size=     223KiB time=00:00:01.33 bitrate=1370.0kbits/s speed=0.0769x elapsed=0:00:17.33    \nframe=  165 fps=9.2 q=63.0 size=     223KiB time=00:00:01.37 bitrate=1328.5kbits/s speed=0.077x elapsed=0:00:17.86    \nframe=  170 fps=9.2 q=63.0 size=     223KiB time=00:00:01.41 bitrate=1289.4kbits/s speed=0.077x elapsed=0:00:18.40    \nframe=  174 fps=9.2 q=56.0 size=     223KiB time=00:00:01.45 bitrate=1259.8kbits/s speed=0.0766x elapsed=0:00:18.92    \nframe=  179 fps=9.2 q=63.0 size=     223KiB time=00:00:01.49 bitrate=1224.6kbits/s speed=0.0766x elapsed=0:00:19.46    \nframe=  184 fps=9.2 q=62.0 size=     223KiB time=00:00:01.53 bitrate=1191.3kbits/s speed=0.0767x elapsed=0:00:20.00    \nframe=  188 fps=9.2 q=62.0 size=     223KiB time=00:00:01.56 bitrate=1166.0kbits/s speed=0.0764x elapsed=0:00:20.51    \nframe=  193 fps=9.2 q=61.0 size=     223KiB time=00:00:01.60 bitrate=1135.8kbits/s speed=0.0764x elapsed=0:00:21.06    \nframe=  198 fps=9.2 q=63.0 size=     223KiB time=00:00:01.65 bitrate=1107.1kbits/s speed=0.0764x elapsed=0:00:21.59    \nframe=  203 fps=9.2 q=62.0 size=     223KiB time=00:00:01.69 bitrate=1079.8kbits/s speed=0.0764x elapsed=0:00:22.14    \nframe=  207 fps=9.1 q=63.0 size=     223KiB time=00:00:01.72 bitrate=1059.0kbits/s speed=0.0761x elapsed=0:00:22.67    \nframe=  212 fps=9.1 q=63.0 size=     223KiB time=00:00:01.76 bitrate=1034.0kbits/s speed=0.0762x elapsed=0:00:23.19    \nframe=  217 fps=9.1 q=63.0 size=     223KiB time=00:00:01.80 bitrate=1010.2kbits/s speed=0.0762x elapsed=0:00:23.74    \nframe=  222 fps=9.1 q=63.0 size=     223KiB time=00:00:01.84 bitrate= 991.9kbits/s speed=0.0758x elapsed=0:00:24.28    \nframe=  226 fps=9.1 q=63.0 size=     223KiB time=00:00:01.88 bitrate= 969.9kbits/s speed=0.0759x elapsed=0:00:24.82    \nframe=  231 fps=9.1 q=63.0 size=     223KiB time=00:00:01.92 bitrate= 948.9kbits/s speed=0.076x elapsed=0:00:25.34    \nframe=  236 fps=9.1 q=63.0 size=     223KiB time=00:00:01.96 bitrate= 928.8kbits/s speed=0.076x elapsed=0:00:25.87    \nframe=  241 fps=9.1 q=62.0 size=     223KiB time=00:00:02.00 bitrate= 909.6kbits/s speed=0.076x elapsed=0:00:26.41    \nframe=  245 fps=9.1 q=63.0 size=     223KiB time=00:00:02.04 bitrate= 894.7kbits/s speed=0.0757x elapsed=0:00:26.95    \nframe=  251 fps=9.1 q=63.0 size=     223KiB time=00:00:02.09 bitrate= 873.3kbits/s speed=0.0761x elapsed=0:00:27.47    \nframe=  256 fps=9.1 q=63.0 size=     223KiB time=00:00:02.13 bitrate= 856.3kbits/s speed=0.0761x elapsed=0:00:28.02    \nframe=  261 fps=9.1 q=63.0 size=     256KiB time=00:00:02.17 bitrate= 964.2kbits/s speed=0.0761x elapsed=0:00:28.56    \nframe=  266 fps=9.1 q=62.0 size=     256KiB time=00:00:02.21 bitrate= 946.1kbits/s speed=0.0761x elapsed=0:00:29.10    \nframe=  270 fps=9.1 q=63.0 size=     256KiB time=00:00:02.25 bitrate= 932.1kbits/s speed=0.0759x elapsed=0:00:29.65    \nframe=  275 fps=9.1 q=62.0 size=     256KiB time=00:00:02.29 bitrate= 915.1kbits/s speed=0.0759x elapsed=0:00:30.18    \nframe=  280 fps=9.1 q=62.0 size=     256KiB time=00:00:02.33 bitrate= 898.8kbits/s speed=0.076x elapsed=0:00:30.71    \nframe=  284 fps=9.1 q=63.0 size=     256KiB time=00:00:02.36 bitrate= 886.1kbits/s speed=0.0758x elapsed=0:00:31.23    \nframe=  289 fps=9.1 q=63.0 size=     256KiB time=00:00:02.40 bitrate= 870.8kbits/s speed=0.0758x elapsed=0:00:31.75    \nframe=  294 fps=9.1 q=61.0 size=     256KiB time=00:00:02.45 bitrate= 856.0kbits/s speed=0.0759x elapsed=0:00:32.26    \nframe=  299 fps=9.1 q=63.0 size=     256KiB time=00:00:02.49 bitrate= 841.7kbits/s speed=0.076x elapsed=0:00:32.80    \nframe=  303 fps=9.1 q=63.0 size=     256KiB time=00:00:02.52 bitrate= 830.6kbits/s speed=0.0758x elapsed=0:00:33.32    \nframe=  307 fps=9.1 q=53.0 size=     256KiB time=00:00:02.55 bitrate= 819.7kbits/s speed=0.0756x elapsed=0:00:33.84    \nframe=  312 fps=9.1 q=63.0 size=     256KiB time=00:00:02.60 bitrate= 806.6kbits/s speed=0.0757x elapsed=0:00:34.35    \nframe=  317 fps=9.1 q=63.0 size=     256KiB time=00:00:02.64 bitrate= 793.9kbits/s speed=0.0757x elapsed=0:00:34.87    \nframe=  321 fps=9.1 q=56.0 size=     256KiB time=00:00:02.67 bitrate= 784.0kbits/s speed=0.0756x elapsed=0:00:35.39    \nframe=  326 fps=9.1 q=63.0 size=     256KiB time=00:00:02.71 bitrate= 772.0kbits/s speed=0.0757x elapsed=0:00:35.90    \nframe=  331 fps=9.1 q=63.0 size=     256KiB time=00:00:02.75 bitrate= 760.3kbits/s speed=0.0757x elapsed=0:00:36.42    \nframe=  335 fps=9.1 q=56.0 size=     256KiB time=00:00:02.79 bitrate= 751.2kbits/s speed=0.0755x elapsed=0:00:36.95    \nframe=  340 fps=9.1 q=63.0 size=     256KiB time=00:00:02.83 bitrate= 740.2kbits/s speed=0.0756x elapsed=0:00:37.48    \nframe=  345 fps=9.1 q=63.0 size=     256KiB time=00:00:02.87 bitrate= 729.4kbits/s speed=0.0757x elapsed=0:00:37.99    \nframe=  350 fps=9.1 q=63.0 size=     256KiB time=00:00:02.90 bitrate= 721.1kbits/s speed=0.0755x elapsed=0:00:38.54    \nframe=  354 fps=9.1 q=63.0 size=     256KiB time=00:00:02.95 bitrate= 710.9kbits/s speed=0.0755x elapsed=0:00:39.07    \nframe=  358 fps=9.0 q=61.0 size=     256KiB time=00:00:02.98 bitrate= 703.0kbits/s speed=0.0753x elapsed=0:00:39.59    \nframe=  363 fps=9.1 q=63.0 size=     256KiB time=00:00:03.02 bitrate= 693.3kbits/s speed=0.0754x elapsed=0:00:40.10    \nframe=  368 fps=9.1 q=62.0 size=     256KiB time=00:00:03.06 bitrate= 683.9kbits/s speed=0.0754x elapsed=0:00:40.64    \nframe=  372 fps=9.0 q=63.0 size=     256KiB time=00:00:03.10 bitrate= 676.5kbits/s speed=0.0753x elapsed=0:00:41.16    \nframe=  377 fps=9.0 q=63.0 size=     256KiB time=00:00:03.14 bitrate= 667.5kbits/s speed=0.0754x elapsed=0:00:41.68    \nframe=  382 fps=9.1 q=63.0 size=     256KiB time=00:00:03.18 bitrate= 658.8kbits/s speed=0.0754x elapsed=0:00:42.20    \nframe=  387 fps=9.1 q=62.0 size=     512KiB time=00:00:03.22 bitrate=1300.6kbits/s speed=0.0755x elapsed=0:00:42.73    \nframe=  391 fps=9.0 q=63.0 size=     512KiB time=00:00:03.25 bitrate=1287.3kbits/s speed=0.0753x elapsed=0:00:43.26    \nframe=  397 fps=9.1 q=63.0 size=     512KiB time=00:00:03.30 bitrate=1271.0kbits/s speed=0.0754x elapsed=0:00:43.77    \nframe=  401 fps=9.0 q=61.0 size=     512KiB time=00:00:03.34 bitrate=1255.2kbits/s speed=0.0754x elapsed=0:00:44.32    \nframe=  405 fps=9.0 q=63.0 size=     512KiB time=00:00:03.37 bitrate=1242.8kbits/s speed=0.0753x elapsed=0:00:44.83    \nframe=  410 fps=9.0 q=62.0 size=     512KiB time=00:00:03.41 bitrate=1227.6kbits/s speed=0.0753x elapsed=0:00:45.35    \nframe=  414 fps=9.0 q=63.0 size=     512KiB time=00:00:03.45 bitrate=1215.7kbits/s speed=0.0751x elapsed=0:00:45.90    \nframe=  419 fps=9.0 q=63.0 size=     512KiB time=00:00:03.49 bitrate=1201.2kbits/s speed=0.0752x elapsed=0:00:46.42    \nframe=  423 fps=9.0 q=63.0 size=     512KiB time=00:00:03.52 bitrate=1189.9kbits/s speed=0.0751x elapsed=0:00:46.95    \nframe=  427 fps=9.0 q=56.0 size=     512KiB time=00:00:03.55 bitrate=1181.5kbits/s speed=0.0748x elapsed=0:00:47.47    \nframe=  430 fps=9.0 q=63.0 size=     512KiB time=00:00:03.58 bitrate=1170.5kbits/s speed=0.0746x elapsed=0:00:48.01    \nframe=  433 fps=8.9 q=62.0 size=     512KiB time=00:00:03.60 bitrate=1162.4kbits/s speed=0.0744x elapsed=0:00:48.52    \nframe=  436 fps=8.9 q=63.0 size=     512KiB time=00:00:03.63 bitrate=1154.4kbits/s speed=0.074x elapsed=0:00:49.07    \nframe=  439 fps=8.8 q=62.0 size=     512KiB time=00:00:03.65 bitrate=1146.5kbits/s speed=0.0737x elapsed=0:00:49.61    \nframe=  441 fps=8.8 q=63.0 size=     512KiB time=00:00:03.67 bitrate=1141.3kbits/s speed=0.0733x elapsed=0:00:50.12    \nframe=  445 fps=8.8 q=63.0 size=     512KiB time=00:00:03.70 bitrate=1131.0kbits/s speed=0.0732x elapsed=0:00:50.67    \nframe=  448 fps=8.7 q=62.0 size=     512KiB time=00:00:03.73 bitrate=1123.5kbits/s speed=0.0729x elapsed=0:00:51.23    \nframe=  451 fps=8.7 q=63.0 size=     512KiB time=00:00:03.75 bitrate=1116.0kbits/s speed=0.0726x elapsed=0:00:51.78    \nframe=  454 fps=8.7 q=62.0 size=     512KiB time=00:00:03.78 bitrate=1108.6kbits/s speed=0.0723x elapsed=0:00:52.35    \nframe=  456 fps=8.6 q=62.0 size=     512KiB time=00:00:03.80 bitrate=1103.8kbits/s speed=0.0719x elapsed=0:00:52.86    \nframe=  460 fps=8.6 q=63.0 size=     512KiB time=00:00:03.83 bitrate=1094.2kbits/s speed=0.0718x elapsed=0:00:53.39    \nframe=  464 fps=8.6 q=63.0 size=     512KiB time=00:00:03.86 bitrate=1084.7kbits/s speed=0.0716x elapsed=0:00:54.01    \nframe=  467 fps=8.6 q=63.0 size=     512KiB time=00:00:03.89 bitrate=1077.8kbits/s speed=0.0713x elapsed=0:00:54.57    \nframe=  471 fps=8.5 q=62.0 size=     512KiB time=00:00:03.91 bitrate=1070.9kbits/s speed=0.0711x elapsed=0:00:55.11    \nframe=  473 fps=8.5 q=63.0 size=     512KiB time=00:00:03.94 bitrate=1064.1kbits/s speed=0.0708x elapsed=0:00:55.70    \nframe=  477 fps=8.5 q=63.0 size=     512KiB time=00:00:03.96 bitrate=1057.4kbits/s speed=0.0705x elapsed=0:00:56.23    \nframe=  480 fps=8.5 q=63.0 size=     512KiB time=00:00:04.00 bitrate=1048.6kbits/s speed=0.0704x elapsed=0:00:56.79    \nframe=  483 fps=8.4 q=63.0 size=     512KiB time=00:00:04.02 bitrate=1042.1kbits/s speed=0.0702x elapsed=0:00:57.36    \nframe=  486 fps=8.4 q=63.0 size=     512KiB time=00:00:04.05 bitrate=1035.6kbits/s speed=0.0699x elapsed=0:00:57.90    \nframe=  490 fps=8.4 q=63.0 size=     512KiB time=00:00:04.08 bitrate=1027.2kbits/s speed=0.0698x elapsed=0:00:58.48    \nframe=  494 fps=8.4 q=63.0 size=     512KiB time=00:00:04.11 bitrate=1018.9kbits/s speed=0.0697x elapsed=0:00:59.08    \nframe=  497 fps=8.3 q=63.0 size=     512KiB time=00:00:04.14 bitrate=1012.7kbits/s speed=0.0694x elapsed=0:00:59.63    \nframe=  501 fps=8.3 q=63.0 size=     512KiB time=00:00:04.17 bitrate=1004.6kbits/s speed=0.0694x elapsed=0:01:00.15    \nframe=  506 fps=8.3 q=63.0 size=     512KiB time=00:00:04.21 bitrate= 994.7kbits/s speed=0.0695x elapsed=0:01:00.69    \nframe=  511 fps=8.3 q=63.0 size=     512KiB time=00:00:04.25 bitrate= 985.0kbits/s speed=0.0696x elapsed=0:01:01.22    \nframe=  516 fps=8.4 q=63.0 size=     768KiB time=00:00:04.30 bitrate=1463.1kbits/s speed=0.0697x elapsed=0:01:01.73    \nframe=  522 fps=8.4 q=63.0 size=     768KiB time=00:00:04.35 bitrate=1446.3kbits/s speed=0.0699x elapsed=0:01:02.24    \nframe=  527 fps=8.4 q=63.0 size=     768KiB time=00:00:04.39 bitrate=1432.6kbits/s speed=0.07x elapsed=0:01:02.78    \nframe=  532 fps=8.4 q=62.0 size=     768KiB time=00:00:04.43 bitrate=1419.1kbits/s speed=0.07x elapsed=0:01:03.29    \nframe=  537 fps=8.4 q=63.0 size=     768KiB time=00:00:04.47 bitrate=1405.9kbits/s speed=0.0701x elapsed=0:01:03.81    \nframe=  542 fps=8.4 q=63.0 size=     768KiB time=00:00:04.51 bitrate=1392.9kbits/s speed=0.0702x elapsed=0:01:04.34    \nframe=  546 fps=8.4 q=63.0 size=     768KiB time=00:00:04.55 bitrate=1382.7kbits/s speed=0.0701x elapsed=0:01:04.87    \nframe=  551 fps=8.4 q=62.0 size=     768KiB time=00:00:04.59 bitrate=1370.2kbits/s speed=0.0702x elapsed=0:01:05.39    \nframe=  556 fps=8.4 q=63.0 size=     768KiB time=00:00:04.63 bitrate=1357.9kbits/s speed=0.0703x elapsed=0:01:05.90    \nframe=  561 fps=8.4 q=63.0 size=     768KiB time=00:00:04.67 bitrate=1345.8kbits/s speed=0.0704x elapsed=0:01:06.43    \nframe=  565 fps=8.4 q=63.0 size=     768KiB time=00:00:04.70 bitrate=1336.2kbits/s speed=0.0703x elapsed=0:01:06.96    \nframe=  569 fps=8.4 q=63.0 size=     768KiB time=00:00:04.74 bitrate=1326.8kbits/s speed=0.0703x elapsed=0:01:07.49    \nframe=  572 fps=8.4 q=61.0 size=     768KiB time=00:00:04.76 bitrate=1319.9kbits/s speed=0.07x elapsed=0:01:08.05    \nframe=  574 fps=8.4 q=63.0 size=     768KiB time=00:00:04.78 bitrate=1315.3kbits/s speed=0.0697x elapsed=0:01:08.62    \nframe=  576 fps=8.3 q=63.0 size=     768KiB time=00:00:04.80 bitrate=1310.7kbits/s speed=0.0694x elapsed=0:01:09.17    \nframe=  576 fps=8.3 q=63.0 size=     768KiB time=00:00:04.80 bitrate=1310.7kbits/s speed=0.0689x elapsed=0:01:09.71    \nframe=  576 fps=8.2 q=63.0 size=     768KiB time=00:00:04.80 bitrate=1310.7kbits/s speed=0.0683x elapsed=0:01:10.31    \nframe=  576 fps=8.1 q=63.0 size=     768KiB time=00:00:04.80 bitrate=1310.7kbits/s speed=0.0677x elapsed=0:01:10.85    \nframe=  576 fps=8.1 q=63.0 size=     768KiB time=00:00:04.80 bitrate=1310.7kbits/s speed=0.0672x elapsed=0:01:11.38    \nframe=  576 fps=8.0 q=63.0 size=     768KiB time=00:00:04.80 bitrate=1310.7kbits/s speed=0.0667x elapsed=0:01:11.93    \nframe=  576 fps=7.9 q=63.0 size=     768KiB time=00:00:04.80 bitrate=1310.7kbits/s speed=0.0662x elapsed=0:01:12.46    \n[out#0/webm @ 00000218cd309040] video:1092KiB audio:0KiB subtitle:0KiB other streams:0KiB global headers:0KiB muxing overhead: 0.432385%\nframe=  600 fps=8.3 q=61.0 Lsize=    1097KiB time=00:00:05.00 bitrate=1796.5kbits/s speed=0.0689x elapsed=0:01:12.52    \n",
  "seconds": 72.64360451698303,
  "probe_out": {}
}